# xmcd CD database file
#
# Track frame offsets:
#	150
#	12145
#	43818
#	52888
#	69546
#	88967
#	103147
#	117857
#	130634
#	161884
#	175487
#	193648
#	211873
#
# Disc length: 3354 seconds
#
# Revision: 1
# Processed by: cddbd v1.4PL0 Copyright (c) Steve Scherf et al.
# Submitted via: Feurio! 1.66 - http://www.feurio.com
#
DISCID=b50d180d
DTITLE=Various Artist - madley wunderbar
DYEAR=1900
DGENRE=
TTITLE0=Elvis Presley - It's Only Love
TTITLE1=Carreras - Forse la soglia attinse
TTITLE2=Elvis Presley - Come What May
TTITLE3=??? - Track: 1
TTITLE4=??? - Track: 6
TTITLE5=??? - Track: 7
TTITLE6=??? - Track: 3
TTITLE7=Elvis Presley - Don't Cry Daddy
TTITLE8=Domingo - O Luigi! Luigi!
TTITLE9=??? - Track: 5
TTITLE10=??? - Track: 10
TTITLE11=Domingo - L'usato messo Ruiz invia! ... Perigliarti ancor
TTITLE12=Pavarotti - Non sono in vena .. Chi è là? ... Che gelida manina
EXTD=
EXTT0=
EXTT1=
EXTT2=
EXTT3=
EXTT4=
EXTT5=
EXTT6=
EXTT7=
EXTT8=
EXTT9=
EXTT10=
EXTT11=
EXTT12=
PLAYORDER=
